<svg width="16" height="16" viewBox="0 0 16 16" fill="none" xmlns="http://www.w3.org/2000/svg">
<path d="M14.7803 9.0648C14.7803 12.8951 11.6798 16.0002 7.85524 16.0002C4.03063 16.0002 0.930176 12.8951 0.930176 9.0648C0.930176 5.23448 4.03063 2.12939 7.85524 2.12939C11.6798 2.12939 14.7803 5.23448 14.7803 9.0648Z" fill="black"/>
<path fill-rule="evenodd" clip-rule="evenodd" d="M7.85524 15.7315C11.5311 15.7315 14.5116 12.7471 14.5116 9.0648C14.5116 5.38252 11.5311 2.39813 7.85524 2.39813C4.17943 2.39813 1.19891 5.38252 1.19891 9.0648C1.19891 12.7471 4.17943 15.7315 7.85524 15.7315ZM7.85524 16.0002C11.6798 16.0002 14.7803 12.8951 14.7803 9.0648C14.7803 5.23448 11.6798 2.12939 7.85524 2.12939C4.03063 2.12939 0.930176 5.23448 0.930176 9.0648C0.930176 12.8951 4.03063 16.0002 7.85524 16.0002Z" fill="white"/>
<path d="M13.9741 9.06475C13.9741 12.4498 11.2345 15.1939 7.85519 15.1939C4.47584 15.1939 1.73633 12.4498 1.73633 9.06475C1.73633 5.67968 4.47584 2.93555 7.85519 2.93555C11.2345 2.93555 13.9741 5.67968 13.9741 9.06475Z" fill="black"/>
<path fill-rule="evenodd" clip-rule="evenodd" d="M7.85519 14.9872C11.12 14.9872 13.7673 12.336 13.7673 9.06475C13.7673 5.79352 11.12 3.14227 7.85519 3.14227C4.59033 3.14227 1.94305 5.79352 1.94305 9.06475C1.94305 12.336 4.59033 14.9872 7.85519 14.9872ZM7.85519 15.1939C11.2345 15.1939 13.9741 12.4498 13.9741 9.06475C13.9741 5.67968 11.2345 2.93555 7.85519 2.93555C4.47584 2.93555 1.73633 5.67968 1.73633 9.06475C1.73633 12.4498 4.47584 15.1939 7.85519 15.1939Z" fill="#FF0404"/>
<path d="M13.2712 9.06454C13.2712 12.0614 10.8417 14.4909 7.84481 14.4909C4.84792 14.4909 2.41846 12.0614 2.41846 9.06454C2.41846 6.06765 4.84792 3.63818 7.84481 3.63818C10.8417 3.63818 13.2712 6.06765 13.2712 9.06454Z" fill="black"/>
<path fill-rule="evenodd" clip-rule="evenodd" d="M7.84481 14.3462C10.7618 14.3462 13.1265 11.9815 13.1265 9.06454C13.1265 6.14756 10.7618 3.78289 7.84481 3.78289C4.92784 3.78289 2.56316 6.14756 2.56316 9.06454C2.56316 11.9815 4.92784 14.3462 7.84481 14.3462ZM7.84481 14.4909C10.8417 14.4909 13.2712 12.0614 13.2712 9.06454C13.2712 6.06765 10.8417 3.63818 7.84481 3.63818C4.84792 3.63818 2.41846 6.06765 2.41846 9.06454C2.41846 12.0614 4.84792 14.4909 7.84481 14.4909Z" fill="white"/>
<path d="M7.85035 0.268555L15.4678 13.4624H0.23291L7.85035 0.268555Z" fill="black"/>
<path d="M7.85027 1.48828L14.4115 12.8526H1.28906L7.85027 1.48828Z" fill="black"/>
<path d="M7.05771 6.03967C6.72712 6.09549 6.01012 6.28869 5.42621 6.48189C4.43014 6.81249 4.03085 6.91124 3.67879 6.91124C3.51135 6.91124 3.24528 6.84254 3.3482 6.94988C3.45113 7.05721 3.82477 7.13879 4.18112 7.16025C4.57612 7.18172 4.9797 7.10444 5.82121 6.84254C7.2638 6.39603 7.75325 6.40461 9.82267 6.9327C11.2052 7.28476 11.3168 7.29764 11.8449 7.16884C12.0681 7.11303 12.1543 7.13879 12.2527 7.03575C12.3512 6.9327 12.1154 6.9971 11.9479 6.9971C11.5916 6.9971 11.2524 6.91553 10.0631 6.5463C9.06274 6.23288 8.77079 6.15559 8.28134 6.06973C7.96362 6.01391 7.30673 5.99674 7.05771 6.03967Z" fill="#FF0404"/>
<path d="M6.90452 6.85541C6.47088 6.92411 6.05013 7.03144 5.40182 7.23323C4.98966 7.35774 4.51738 7.48655 4.34994 7.5166C3.985 7.57671 3.89054 7.62394 3.90771 7.72698C3.9163 7.7785 3.82614 7.89442 3.6544 8.05757C3.40538 8.28942 3.38392 8.32376 3.38392 8.49121C3.38392 8.58995 3.35249 8.68467 3.40762 8.69896C3.46275 8.71326 3.55565 8.61572 3.6544 8.55131C3.98929 8.31947 4.25977 8.27653 4.59037 8.39246C4.8308 8.47833 4.9596 8.60283 5.01971 8.80463C5.11416 9.11375 4.88911 9.50912 4.55602 9.51304C4.22293 9.51696 3.8866 9.3298 3.78321 9.41429C3.67981 9.49878 3.80467 9.49157 3.92489 9.62037C4.34564 10.0669 4.79645 10.7238 5.16998 11.4322L5.38894 11.853L5.4147 11.6898C5.43188 11.5996 5.44476 10.9427 5.44476 10.23C5.44476 9.50445 5.36451 9.00731 5.4834 8.91196C5.60229 8.81661 6.03725 9.2769 6.53958 9.81787C7.90489 11.2948 8.57036 11.7843 9.5235 12.0247C10.1546 12.1835 10.9017 12.0891 11.2924 11.7928C11.7003 11.488 11.8462 10.8612 11.6187 10.4061C11.258 9.68478 10.0301 9.79211 9.82404 10.5649C9.75105 10.8268 9.90203 11.1215 9.99578 11.2132C10.0895 11.3049 10.1301 11.3832 10.4037 11.3764C10.6772 11.3696 10.6805 11.3447 10.7686 11.2562C10.8567 11.1677 10.9661 10.5735 10.7042 10.4748C10.5196 10.4061 10.5754 10.3331 10.7944 10.3588C11.301 10.4147 11.4341 10.9857 11.0391 11.4193C10.8545 11.6297 10.6527 11.6898 10.1847 11.6898C9.9142 11.6855 9.75535 11.6555 9.4634 11.5567C8.82797 11.3377 8.49308 11.0973 7.53565 10.1914C7.05908 9.74059 6.59969 9.29837 6.51811 9.20821C6.37643 9.05364 6.37214 9.04935 6.47518 9.0794C6.53529 9.09658 6.98609 9.11804 7.48413 9.13093C8.20972 9.1481 8.45874 9.13951 8.77216 9.0837C9.23584 8.99783 9.86698 8.80892 10.4251 8.58566C10.6484 8.49979 11.0949 8.34952 11.4126 8.25077C11.7303 8.15632 12.0738 8.0404 12.1768 7.99317L12.3615 7.91159L11.9622 7.89013C11.6144 7.86866 11.4255 7.82143 10.5325 7.53807C9.37753 7.16883 8.70346 6.98851 8.10668 6.88976C7.72886 6.82965 7.15783 6.81248 6.90452 6.85541ZM8.83656 7.43503C9.34747 7.55524 10.6255 7.80369 10.6484 8.04898C10.6712 8.29427 9.85839 8.40963 9.3303 8.54273C8.8108 8.67582 7.80716 8.86044 7.73315 8.78316C7.65913 8.70588 7.77608 8.693 7.86195 8.61142C8.16678 8.33235 8.28271 7.82573 8.12385 7.44791C8.12385 7.44791 8.02565 7.32221 8.05945 7.28905C8.09324 7.25589 8.26553 7.31481 8.26553 7.31481C8.37716 7.33198 8.63477 7.3835 8.83656 7.43503ZM7.84478 7.44361C8.18396 7.80426 7.84478 8.58995 7.30381 8.70588C6.79718 8.81751 6.37643 8.59425 6.26051 8.15203C6.20614 7.95346 6.25199 7.71975 6.33642 7.5763C6.51185 7.24555 7.43174 6.97682 7.84478 7.44361ZM6.0029 7.79138C6.0029 8.12197 6.0716 8.3624 6.20469 8.50838C6.24333 8.55131 6.25192 8.58566 6.22616 8.58566C6.15317 8.58566 5.45764 8.33235 5.0283 8.15203C4.75352 8.0361 4.67676 7.91741 4.43151 7.98458C4.18627 8.05176 4.23831 7.92877 4.71917 7.81714C4.94672 7.76562 5.30307 7.66687 5.51345 7.59818C5.72383 7.52948 5.82502 7.44513 5.95138 7.46937C6.07774 7.49362 6.0029 7.56383 6.0029 7.79138Z" fill="#FF0404"/>
<path fill-rule="evenodd" clip-rule="evenodd" d="M11.4877 6.83785C11.6224 6.86637 11.7291 6.88173 11.8274 6.88876L7.85017 0L3.94012 6.77241L3.92803 6.79336C4.0286 6.78099 4.14122 6.75997 4.2763 6.72759L4.28724 6.70864L7.85017 0.537467L11.4877 6.83785ZM3.6996 7.18901L0 13.5969H15.7003L12.4688 7.99961L12.2404 8.08705L12.2397 8.08736C12.2325 8.09064 12.2243 8.09419 12.2152 8.098L15.2349 13.3282H0.465461L3.30375 8.41211C3.30874 8.35527 3.3224 8.30168 3.35854 8.24375C3.3874 8.19748 3.43015 8.14962 3.48864 8.09186L3.98009 7.24064C3.88469 7.22696 3.78806 7.20889 3.6996 7.18901ZM11.7549 7.30074L12.0371 7.78948L12.3574 7.80669L12.0264 7.23339C11.9836 7.24522 11.938 7.25724 11.8908 7.26903L11.8905 7.2691L11.8902 7.26917C11.8425 7.28081 11.7978 7.29139 11.7549 7.30074Z" fill="white"/>
<path fill-rule="evenodd" clip-rule="evenodd" d="M10.6965 6.62534C10.8013 6.65658 10.8965 6.68437 10.9836 6.70906L7.85009 1.28174L4.78831 6.58491C4.87801 6.55749 4.97487 6.52702 5.07992 6.49325L7.85009 1.69518L10.6965 6.62534ZM5.03481 6.57139L4.76779 6.62044L5.03481 6.57139L5.03481 6.57139ZM4.39509 7.26598C4.47508 7.26363 4.55755 7.25716 4.64526 7.2461L4.57774 7.36306C4.48086 7.3876 4.40239 7.4058 4.35276 7.41475C4.33624 7.41747 4.32016 7.42018 4.30449 7.42289L4.39509 7.26598ZM3.534 8.75743L1.10986 12.9562H14.5903L11.859 8.22543C11.7948 8.24664 11.7268 8.26853 11.6577 8.29018L14.2323 12.7494H1.46791L3.90172 8.53396C3.84817 8.56167 3.7924 8.5956 3.73361 8.6363L3.73243 8.63712L3.73124 8.6379C3.6797 8.67151 3.61626 8.70944 3.56653 8.73852C3.55491 8.74532 3.54396 8.75167 3.534 8.75743ZM11.5729 7.72989L11.3518 7.34682C11.2933 7.34595 11.2314 7.34174 11.163 7.33376C11.1429 7.33141 11.1222 7.32874 11.1009 7.32573L11.2922 7.65703C11.4028 7.68855 11.4932 7.71206 11.5729 7.72989Z" fill="#FF0404"/>
<path fill-rule="evenodd" clip-rule="evenodd" d="M9.83372 6.47479C9.89821 6.49481 9.96602 6.51596 10.0375 6.53834C9.96602 6.51596 9.89821 6.49481 9.83372 6.47479ZM7.85002 2.74951L9.96122 6.40621C9.88965 6.38389 9.82193 6.36287 9.75766 6.34305L7.85002 3.03892L6.03241 6.18711C5.96563 6.20633 5.89834 6.2261 5.83118 6.24625L7.85002 2.74951ZM5.34299 7.09182C5.40658 7.07433 5.47311 7.05538 5.54293 7.03492L5.5102 7.0916C5.46499 7.10542 5.41867 7.11971 5.37115 7.1345C5.34998 7.14089 5.32867 7.14729 5.30727 7.15368L5.34299 7.09182ZM4.53903 8.48432L4.0282 9.3691C4.07714 9.37831 4.129 9.38666 4.18108 9.39372L4.67355 8.54072C4.63901 8.52272 4.5999 8.50584 4.55552 8.48998C4.55 8.48804 4.5445 8.48616 4.53903 8.48432ZM3.84489 9.68661L2.38086 12.2224H13.3192L11.1393 8.44673C11.0927 8.46201 11.0457 8.47758 10.999 8.49317L13.0686 12.0777H10.9633C10.8229 12.1267 10.6695 12.1615 10.511 12.182C10.1844 12.2244 9.82675 12.2078 9.4979 12.125L9.49785 12.125C9.43921 12.1102 9.38163 12.0945 9.32492 12.0777H5.45774L5.44173 12.1791L5.38896 12.0777H2.63149L3.94732 9.7986C3.91447 9.76159 3.88178 9.72581 3.84929 9.69134L3.84912 9.69116L3.84896 9.69098C3.84759 9.68952 3.84624 9.68806 3.84489 9.68661ZM10.5566 7.43748L10.4119 7.18687C10.3507 7.17205 10.2859 7.1561 10.2172 7.13899L10.352 7.37248C10.4185 7.39348 10.4867 7.41513 10.5566 7.43748ZM5.43427 7.22312C5.4234 7.22649 5.41246 7.22989 5.40145 7.23332C5.40933 7.23086 5.41717 7.22843 5.42498 7.226L5.43427 7.22312ZM10.5321 7.53815C10.5669 7.54918 10.6006 7.55986 10.6332 7.57018C10.6006 7.55986 10.5669 7.54918 10.5321 7.53815ZM4.83763 7.96713L4.88593 7.88347C4.94854 7.8678 5.01525 7.85039 5.08263 7.83218L4.97497 8.01865C4.9268 7.99948 4.8811 7.9823 4.83763 7.96713Z" fill="white"/>
<path d="M7.84499 7.44316C8.18416 7.80381 7.84461 8.5895 7.30364 8.70542C6.79702 8.81705 6.37628 8.5938 6.26036 8.15158C6.16161 7.79093 6.39338 7.31437 6.58659 7.47322C6.69392 7.56338 6.7779 7.81837 6.67057 7.96864C6.56323 8.11891 6.41734 8.09744 6.41734 8.09744C6.41734 8.09744 6.45202 8.24918 6.58271 8.36625C6.82744 8.58092 7.2827 8.60238 7.5446 8.41347C7.82796 8.21597 7.93468 7.76087 7.76294 7.4775C7.6642 7.31435 7.7076 7.29719 7.84499 7.44316Z" fill="white"/>
</svg>
