<svg width="32" height="32" viewBox="0 0 32 32" fill="none" xmlns="http://www.w3.org/2000/svg">
<path d="M29.5606 18.1296C29.5606 25.7902 23.3597 32.0004 15.7105 32.0004C8.06127 32.0004 1.86035 25.7902 1.86035 18.1296C1.86035 10.469 8.06127 4.25879 15.7105 4.25879C23.3597 4.25879 29.5606 10.469 29.5606 18.1296Z" fill="black"/>
<path fill-rule="evenodd" clip-rule="evenodd" d="M15.7105 31.4629C23.0621 31.4629 29.0231 25.4941 29.0231 18.1296C29.0231 10.765 23.0621 4.79626 15.7105 4.79626C8.35886 4.79626 2.39782 10.765 2.39782 18.1296C2.39782 25.4941 8.35886 31.4629 15.7105 31.4629ZM15.7105 32.0004C23.3597 32.0004 29.5606 25.7902 29.5606 18.1296C29.5606 10.469 23.3597 4.25879 15.7105 4.25879C8.06127 4.25879 1.86035 10.469 1.86035 18.1296C1.86035 25.7902 8.06127 32.0004 15.7105 32.0004Z" fill="white"/>
<path d="M27.9481 18.1295C27.9481 24.8996 22.4691 30.3879 15.7104 30.3879C8.95167 30.3879 3.47266 24.8996 3.47266 18.1295C3.47266 11.3594 8.95167 5.87109 15.7104 5.87109C22.4691 5.87109 27.9481 11.3594 27.9481 18.1295Z" fill="black"/>
<path fill-rule="evenodd" clip-rule="evenodd" d="M15.7104 29.9745C22.2401 29.9745 27.5347 24.6719 27.5347 18.1295C27.5347 11.587 22.2401 6.28453 15.7104 6.28453C9.18067 6.28453 3.88609 11.587 3.88609 18.1295C3.88609 24.6719 9.18067 29.9745 15.7104 29.9745ZM15.7104 30.3879C22.4691 30.3879 27.9481 24.8996 27.9481 18.1295C27.9481 11.3594 22.4691 5.87109 15.7104 5.87109C8.95167 5.87109 3.47266 11.3594 3.47266 18.1295C3.47266 24.8996 8.95167 30.3879 15.7104 30.3879Z" fill="#FF0404"/>
<path d="M26.5423 18.1291C26.5423 24.1229 21.6834 28.9818 15.6896 28.9818C9.69584 28.9818 4.83691 24.1229 4.83691 18.1291C4.83691 12.1353 9.69584 7.27637 15.6896 7.27637C21.6834 7.27637 26.5423 12.1353 26.5423 18.1291Z" fill="black"/>
<path fill-rule="evenodd" clip-rule="evenodd" d="M15.6896 28.6924C21.5236 28.6924 26.2529 23.963 26.2529 18.1291C26.2529 12.2951 21.5236 7.56577 15.6896 7.56577C9.85567 7.56577 5.12632 12.2951 5.12632 18.1291C5.12632 23.963 9.85567 28.6924 15.6896 28.6924ZM15.6896 28.9818C21.6834 28.9818 26.5423 24.1229 26.5423 18.1291C26.5423 12.1353 21.6834 7.27637 15.6896 7.27637C9.69584 7.27637 4.83691 12.1353 4.83691 18.1291C4.83691 24.1229 9.69584 28.9818 15.6896 28.9818Z" fill="white"/>
<path d="M15.7007 0.537109L30.9356 26.9247H0.46582L15.7007 0.537109Z" fill="black"/>
<path d="M15.7005 2.97656L28.8229 25.7052H2.57812L15.7005 2.97656Z" fill="black"/>
<path d="M14.1154 12.0793C13.4542 12.191 12.0202 12.5774 10.8524 12.9638C8.86028 13.625 8.06171 13.8225 7.35759 13.8225C7.0227 13.8225 6.49055 13.6851 6.6964 13.8998C6.90225 14.1144 7.64954 14.2776 8.36225 14.3205C9.15224 14.3634 9.9594 14.2089 11.6424 13.6851C14.5276 12.7921 15.5065 12.8092 19.6453 13.8654C22.4103 14.5695 22.6336 14.5953 23.6897 14.3377C24.1363 14.2261 24.3086 14.2776 24.5055 14.0715C24.7024 13.8654 24.2307 13.9942 23.8958 13.9942C23.1831 13.9942 22.5048 13.8311 20.1262 13.0926C18.1255 12.4658 17.5416 12.3112 16.5627 12.1395C15.9272 12.0278 14.6135 11.9935 14.1154 12.0793Z" fill="#FF0404"/>
<path d="M13.809 13.7108C12.9418 13.8482 12.1003 14.0629 10.8036 14.4665C9.97931 14.7155 9.03476 14.9731 8.69987 15.0332C7.96999 15.1534 7.78108 15.2479 7.81543 15.454C7.8326 15.557 7.65228 15.7888 7.30881 16.1151C6.81077 16.5788 6.76784 16.6475 6.76784 16.9824C6.76784 17.1799 6.70499 17.3693 6.81525 17.3979C6.9255 17.4265 7.11131 17.2314 7.30881 17.1026C7.97858 16.6389 8.51955 16.5531 9.18074 16.7849C9.6616 16.9567 9.9192 17.2057 10.0394 17.6093C10.2283 18.2275 9.77822 19.0182 9.11204 19.0261C8.44586 19.0339 7.77321 18.6596 7.56641 18.8286C7.35961 18.9976 7.60935 18.9831 7.84978 19.2407C8.69129 20.1338 9.5929 21.4476 10.34 22.8644L10.7779 23.7059L10.8294 23.3796C10.8638 23.1993 10.8895 21.8855 10.8895 20.4601C10.8895 19.0089 10.729 18.0146 10.9668 17.8239C11.2046 17.6332 12.0745 18.5538 13.0792 19.6357C15.8098 22.5896 17.1407 23.5685 19.047 24.0494C20.3093 24.3671 21.8034 24.1782 22.5848 23.5857C23.4005 22.976 23.6925 21.7223 23.2374 20.8121C22.5161 19.3696 20.0603 19.5842 19.6481 21.1299C19.5021 21.6536 19.8041 22.243 19.9916 22.4265C20.1791 22.6099 20.2602 22.7664 20.8073 22.7528C21.3544 22.7392 21.361 22.6893 21.5372 22.5123C21.7134 22.3354 21.9322 21.147 21.4084 20.9495C21.0392 20.8121 21.1508 20.6662 21.5887 20.7177C22.602 20.8293 22.8681 21.9714 22.0782 22.8386C21.7089 23.2594 21.3053 23.3796 20.3694 23.3796C19.8284 23.371 19.5107 23.3109 18.9268 23.1134C17.6559 22.6755 16.9862 22.1946 15.0713 20.3828C14.1182 19.4812 13.1994 18.5967 13.0362 18.4164C12.7529 18.1073 12.7443 18.0987 12.9504 18.1588C13.0706 18.1932 13.9722 18.2361 14.9683 18.2619C16.4194 18.2962 16.9175 18.279 17.5443 18.1674C18.4717 17.9957 19.734 17.6178 20.8502 17.1713C21.2968 16.9996 22.1898 16.699 22.8252 16.5015C23.4606 16.3126 24.1476 16.0808 24.3537 15.9863L24.7229 15.8232L23.9243 15.7803C23.2288 15.7373 22.851 15.6429 21.0649 15.0761C18.7551 14.3377 17.4069 13.977 16.2134 13.7795C15.4577 13.6593 14.3157 13.625 13.809 13.7108ZM17.6731 14.8701C18.6949 15.1105 21.2511 15.6074 21.2968 16.098C21.3424 16.5885 19.7168 16.8193 18.6606 17.0855C17.6216 17.3516 15.6143 17.7209 15.4663 17.5663C15.3183 17.4118 15.5522 17.386 15.7239 17.2228C16.3336 16.6647 16.5654 15.6515 16.2477 14.8958C16.2477 14.8958 16.0513 14.6444 16.1189 14.5781C16.1865 14.5118 16.5311 14.6296 16.5311 14.6296C16.7543 14.664 17.2695 14.767 17.6731 14.8701ZM15.6896 14.8872C16.3679 15.6085 15.6896 17.1799 14.6076 17.4118C13.5944 17.635 12.7529 17.1885 12.521 16.3041C12.4123 15.9069 12.504 15.4395 12.6728 15.1526C13.0237 14.4911 14.8635 13.9536 15.6896 14.8872ZM12.0058 15.5828C12.0058 16.2439 12.1432 16.7248 12.4094 17.0168C12.4867 17.1026 12.5038 17.1713 12.4523 17.1713C12.3063 17.1713 10.9153 16.6647 10.0566 16.3041C9.50704 16.0722 9.35351 15.8348 8.86302 15.9692C8.37253 16.1035 8.47662 15.8575 9.43834 15.6343C9.89344 15.5312 10.6061 15.3337 11.0269 15.1964C11.4477 15.059 11.65 14.8903 11.9028 14.9387C12.1555 14.9872 12.0058 15.1277 12.0058 15.5828Z" fill="#FF0404"/>
<path fill-rule="evenodd" clip-rule="evenodd" d="M22.9754 13.6757C23.2448 13.7327 23.4583 13.7635 23.6548 13.7775L15.7003 0L7.88024 13.5448L7.85605 13.5867C8.0572 13.562 8.28245 13.5199 8.55261 13.4552L8.57449 13.4173L15.7003 1.07493L22.9754 13.6757ZM7.3992 14.378L0 27.1938H31.4007L24.9375 15.9992L24.4807 16.1741L24.4794 16.1747C24.465 16.1813 24.4487 16.1884 24.4305 16.196L30.4698 26.6563H0.930921L6.60749 16.8242C6.61748 16.7105 6.6448 16.6034 6.71707 16.4875C6.77481 16.395 6.8603 16.2992 6.97729 16.1837L7.96019 14.4813C7.76939 14.4539 7.57612 14.4178 7.3992 14.378ZM23.5099 14.6015L24.0742 15.579L24.7147 15.6134L24.0527 14.4668C23.9672 14.4904 23.876 14.5145 23.7816 14.5381L23.781 14.5382L23.7805 14.5383C23.6851 14.5616 23.5956 14.5828 23.5099 14.6015Z" fill="white"/>
<path fill-rule="evenodd" clip-rule="evenodd" d="M21.3931 13.2507C21.6026 13.3132 21.793 13.3687 21.9671 13.4181L15.7002 2.56348L9.57661 13.1698C9.75602 13.115 9.94974 13.054 10.1598 12.9865L15.7002 3.39035L21.3931 13.2507ZM10.0696 13.1428L9.53558 13.2409L10.0696 13.1428L10.0696 13.1428ZM8.79018 14.532C8.95017 14.5273 9.11511 14.5143 9.29053 14.4922L9.15548 14.7261C8.96171 14.7752 8.80477 14.8116 8.70552 14.8295C8.67249 14.8349 8.64031 14.8404 8.60899 14.8458L8.79018 14.532ZM7.068 17.5149L2.21973 25.9123H29.1806L23.7181 16.4509C23.5896 16.4933 23.4536 16.5371 23.3154 16.5804L28.4645 25.4989H2.93582L7.80344 17.0679C7.69633 17.1233 7.5848 17.1912 7.46721 17.2726L7.46486 17.2742L7.46247 17.2758C7.3594 17.343 7.23252 17.4189 7.13306 17.477C7.10982 17.4906 7.08792 17.5033 7.068 17.5149ZM23.1459 15.4598L22.7035 14.6936C22.5867 14.6919 22.4627 14.6835 22.326 14.6675C22.2858 14.6628 22.2444 14.6575 22.2018 14.6515L22.5843 15.3141C22.8055 15.3771 22.9865 15.4241 23.1459 15.4598Z" fill="#FF0404"/>
<path fill-rule="evenodd" clip-rule="evenodd" d="M19.6674 12.9496C19.7964 12.9896 19.932 13.0319 20.075 13.0767C19.932 13.0319 19.7964 12.9896 19.6674 12.9496ZM15.7 5.49902L19.9224 12.8124C19.7793 12.7678 19.6439 12.7257 19.5153 12.6861L15.7 6.07784L12.0648 12.3742C11.9313 12.4127 11.7967 12.4522 11.6624 12.4925L15.7 5.49902ZM10.686 14.1836C10.8132 14.1487 10.9462 14.1108 11.0859 14.0698L11.0204 14.1832C10.93 14.2108 10.8373 14.2394 10.7423 14.269C10.7 14.2818 10.6573 14.2946 10.6145 14.3074L10.686 14.1836ZM9.07805 16.9686L8.0564 18.7382C8.15429 18.7566 8.258 18.7733 8.36216 18.7874L9.34711 17.0814C9.27802 17.0454 9.1998 17.0117 9.11104 16.98C9.1 16.9761 9.089 16.9723 9.07805 16.9686ZM7.68977 19.3732L4.76172 24.4448H26.6384L22.2786 16.8935C22.1854 16.924 22.0914 16.9552 21.9981 16.9863L26.1371 24.1554H21.9267C21.6458 24.2534 21.339 24.3229 21.0221 24.364C20.3688 24.4487 19.6535 24.4155 18.9958 24.25L18.9957 24.25C18.8784 24.2204 18.7633 24.1889 18.6498 24.1554H10.9155L10.8835 24.3582L10.7779 24.1554H5.26298L7.89463 19.5972C7.82894 19.5232 7.76356 19.4516 7.69859 19.3827L7.69825 19.3823L7.69791 19.382C7.69519 19.379 7.69248 19.3761 7.68977 19.3732ZM21.1132 14.875L20.8239 14.3737C20.7014 14.3441 20.5718 14.3122 20.4344 14.278L20.704 14.745C20.8371 14.787 20.9734 14.8303 21.1132 14.875ZM10.8685 14.4462C10.8468 14.453 10.8249 14.4598 10.8029 14.4666C10.8187 14.4617 10.8343 14.4569 10.85 14.452L10.8685 14.4462ZM21.0642 15.0763C21.1337 15.0984 21.2011 15.1197 21.2665 15.1404C21.2011 15.1197 21.1337 15.0984 21.0642 15.0763ZM9.67526 15.9343L9.77186 15.7669C9.89707 15.7356 10.0305 15.7008 10.1653 15.6644L9.94994 16.0373C9.85361 15.999 9.76219 15.9646 9.67526 15.9343Z" fill="white"/>
<path d="M15.69 14.8863C16.3683 15.6076 15.6892 17.179 14.6073 17.4108C13.594 17.6341 12.7526 17.1876 12.5207 16.3032C12.3232 15.5819 12.7868 14.6287 13.1732 14.9464C13.3878 15.1268 13.5558 15.6367 13.3411 15.9373C13.1265 16.2378 12.8347 16.1949 12.8347 16.1949C12.8347 16.1949 12.904 16.4984 13.1654 16.7325C13.6549 17.1618 14.5654 17.2048 15.0892 16.8269C15.6559 16.4319 15.8694 15.5217 15.5259 14.955C15.3284 14.6287 15.4152 14.5944 15.69 14.8863Z" fill="white"/>
</svg>
